<svg width="129" height="129" viewBox="0 0 129 129" fill="none" xmlns="http://www.w3.org/2000/svg">
<g clip-path="url(#clip0_16_410)">
<path fill-rule="evenodd" clip-rule="evenodd" d="M64.287 0.286987C28.8127 0.286987 0.286987 28.8127 0.286987 64.287C0.286987 99.3955 28.8127 128.287 64.287 128.287C99.3955 128.287 128.287 99.7612 128.287 64.287C127.921 28.8127 99.3955 0.286987 64.287 0.286987Z" fill="white"/>
<path fill-rule="evenodd" clip-rule="evenodd" d="M75.2586 58.4354C79.2813 56.607 81.8413 54.047 83.6701 52.2182C86.9613 48.5612 88.0586 44.1724 88.0586 39.7839C88.0586 36.4924 86.9613 29.5439 81.1101 24.7897C77.087 21.4982 73.4301 20.0354 64.6528 20.0354H60.2643H59.8985H41.6128V105.612H93.1785V89.1554C93.1785 73.7954 88.4243 63.1897 75.2586 58.4354ZM81.4755 101.224H71.967V72.6982H61.3613V101.224H52.9501V24.4239H61.3613C64.6528 24.4239 69.407 25.1554 72.6985 29.1782C74.527 31.3725 75.6243 34.2982 75.9901 36.8582H60.9955V41.247H75.9901C75.9901 43.807 75.2585 47.0982 72.6985 50.3897C70.5043 53.3154 66.4813 55.8754 60.9955 55.8754V60.2639C75.6243 60.2639 81.1101 69.7724 81.1101 87.6924V101.224H81.4755Z" fill="black"/>
</g>
<defs>
<clipPath id="clip0_16_410">
<rect width="128" height="128" fill="white" transform="translate(0.286987 0.286987)"/>
</clipPath>
</defs>
</svg>
